HIERARCHY
ROOT Hips
{
	OFFSET 0.000000 71.427986 0.000000
	CHANNELS 6 Xposition Yposition Zposition Xrotation Yrotation Zrotation
	JOINT Pelvis
	{
		OFFSET 0.000000 0.000000 0.000000
		CHANNELS 3 Xrotation Yrotation Zrotation
		JOINT LeftUpLeg
		{
			OFFSET 6.797100 -2.508499 -1.318700
			CHANNELS 3 Xrotation Yrotation Zrotation
			JOINT LeftLeg
			{
				OFFSET 0.069008 -29.241863 0.690200
				CHANNELS 3 Xrotation Yrotation Zrotation
				JOINT LeftFoot
				{
					OFFSET -0.069008 -29.568123 -0.266800
					CHANNELS 3 Xrotation Yrotation Zrotation
					JOINT LeftToeBase
					{
						OFFSET 3.145500 -8.631000 16.059900
						CHANNELS 3 Xrotation Yrotation Zrotation
						End Site
						{
							OFFSET 0.000000 18.501587 0.000000
						}
					}
				}
			}
			JOINT Left_ShortSleeve
			{
				OFFSET 0.265923 -10.480953 1.153800
				CHANNELS 3 Xrotation Yrotation Zrotation
				End Site
				{
					OFFSET 1.725763 19.823879 0.000000
				}
			}
		}
		JOINT RightUpLeg
		{
			OFFSET -6.797100 -2.508499 -1.318700
			CHANNELS 3 Xrotation Yrotation Zrotation
			JOINT RightLeg
			{
				OFFSET -0.082453 -29.241932 0.688000
				CHANNELS 3 Xrotation Yrotation Zrotation
				JOINT RightFoot
				{
					OFFSET 0.082453 -29.568058 -0.264600
					CHANNELS 3 Xrotation Yrotation Zrotation
					JOINT RightToeBase
					{
						OFFSET -3.115300 -8.682800 16.113400
						CHANNELS 3 Xrotation Yrotation Zrotation
						End Site
						{
							OFFSET 0.000000 18.567114 0.000000
						}
					}
				}
			}
			JOINT Right_ShortSleeve
			{
				OFFSET -0.265923 -10.480953 1.153800
				CHANNELS 3 Xrotation Yrotation Zrotation
				End Site
				{
					OFFSET -1.725766 19.823910 0.000000
				}
			}
		}
	}
	JOINT Spine
	{
		OFFSET 0.000000 13.368103 0.470500
		CHANNELS 3 Xrotation Yrotation Zrotation
		JOINT Spine1
		{
			OFFSET 0.147000 13.837402 0.538800
			CHANNELS 3 Xrotation Yrotation Zrotation
			JOINT Spine2
			{
				OFFSET 0.168000 16.242897 -1.435500
				CHANNELS 3 Xrotation Yrotation Zrotation
				JOINT Neck
				{
					OFFSET 0.217200 18.631500 -1.679100
					CHANNELS 3 Xrotation Yrotation Zrotation
					JOINT Head
					{
						OFFSET 0.000000 6.599396 1.385900
						CHANNELS 3 Xrotation Yrotation Zrotation
						JOINT Hat
						{
							OFFSET -0.532200 27.220596 -10.096100
							CHANNELS 3 Xrotation Yrotation Zrotation
							End Site
							{
								OFFSET 0.000000 22.029861 0.000000
							}
						}
						JOINT HairD
						{
							OFFSET -10.777400 17.437393 -1.325900
							CHANNELS 3 Xrotation Yrotation Zrotation
							JOINT HairD1
							{
								OFFSET -3.290299 -11.051193 1.062200
								CHANNELS 3 Xrotation Yrotation Zrotation
								End Site
								{
									OFFSET 0.000000 11.579437 0.000000
								}
							}
						}
						JOINT HairB
						{
							OFFSET -10.777400 17.437393 1.467900
							CHANNELS 3 Xrotation Yrotation Zrotation
							JOINT HairB1
							{
								OFFSET -1.561200 -12.956299 3.590200
								CHANNELS 3 Xrotation Yrotation Zrotation
								End Site
								{
									OFFSET 0.000000 13.534866 0.000000
								}
							}
						}
						JOINT HairA
						{
							OFFSET 9.713100 17.437393 1.467900
							CHANNELS 3 Xrotation Yrotation Zrotation
							JOINT HairA1
							{
								OFFSET 1.561200 -12.956299 3.590200
								CHANNELS 3 Xrotation Yrotation Zrotation
								End Site
								{
									OFFSET 0.000000 13.534866 0.000000
								}
							}
						}
						JOINT HairC
						{
							OFFSET 9.713100 17.437393 -1.325900
							CHANNELS 3 Xrotation Yrotation Zrotation
							JOINT HairC1
							{
								OFFSET 3.290300 -11.051193 1.062200
								CHANNELS 3 Xrotation Yrotation Zrotation
								End Site
								{
									OFFSET 0.000000 11.579437 0.000000
								}
							}
						}
					}
				}
				JOINT LeftShoulder
				{
					OFFSET 5.101800 15.108002 -2.763700
					CHANNELS 3 Xrotation Yrotation Zrotation
					JOINT LeftArm
					{
						OFFSET 9.825497 2.506317 -1.597400
						CHANNELS 3 Xrotation Yrotation Zrotation
						JOINT LeftForeArm
						{
							OFFSET 21.966244 0.000000 0.000000
							CHANNELS 3 Xrotation Yrotation Zrotation
							JOINT LeftHand
							{
								OFFSET 33.879036 0.000000 0.000000
								CHANNELS 3 Xrotation Yrotation Zrotation
								JOINT LeftHandThumb1
								{
									OFFSET 6.715286 -2.359680 3.363841
									CHANNELS 3 Xrotation Yrotation Zrotation
									JOINT LeftHandThumb2
									{
										OFFSET 2.507072 -1.447464 1.447461
										CHANNELS 3 Xrotation Yrotation Zrotation
										JOINT LeftHandThumb3
										{
											OFFSET 2.898338 -1.673355 1.673357
											CHANNELS 3 Xrotation Yrotation Zrotation
											End Site
											{
												OFFSET -0.295959 3.727692 -0.131651
											}
										}
									}
								}
								JOINT LeftHandIndex1
								{
									OFFSET 14.190811 -0.254547 3.840278
									CHANNELS 3 Xrotation Yrotation Zrotation
									JOINT LeftHandIndex2
									{
										OFFSET 3.551727 0.000000 -0.000000
										CHANNELS 3 Xrotation Yrotation Zrotation
										JOINT LeftHandIndex3
										{
											OFFSET 2.894196 0.000000 0.000000
											CHANNELS 3 Xrotation Yrotation Zrotation
											End Site
											{
												OFFSET -1.000603 2.690872 0.366626
											}
										}
									}
								}
								JOINT LeftHandMiddle1
								{
									OFFSET 13.776489 0.000000 0.000000
									CHANNELS 3 Xrotation Yrotation Zrotation
									JOINT LeftHandMiddle2
									{
										OFFSET 3.438232 0.000000 0.000000
										CHANNELS 3 Xrotation Yrotation Zrotation
										JOINT LeftHandMiddle3
										{
											OFFSET 3.691551 0.000000 0.000000
											CHANNELS 3 Xrotation Yrotation Zrotation
											End Site
											{
												OFFSET -1.082298 3.499527 0.457670
											}
										}
									}
								}
								JOINT LeftHandRing1
								{
									OFFSET 13.966164 -0.268127 -3.067488
									CHANNELS 3 Xrotation Yrotation Zrotation
									JOINT LeftHandRing2
									{
										OFFSET 3.162567 0.000000 0.000000
										CHANNELS 3 Xrotation Yrotation Zrotation
										JOINT LeftHandRing3
										{
											OFFSET 3.324348 0.000000 0.000000
											CHANNELS 3 Xrotation Yrotation Zrotation
											End Site
											{
												OFFSET -0.861900 3.184998 0.405154
											}
										}
									}
								}
								JOINT LeftHandPinky1
								{
									OFFSET 13.131393 -0.168503 -5.746925
									CHANNELS 3 Xrotation Yrotation Zrotation
									JOINT LeftHandPinky2
									{
										OFFSET 2.849182 0.000000 0.000000
										CHANNELS 3 Xrotation Yrotation Zrotation
										JOINT LeftHandPinky3
										{
											OFFSET 2.805038 0.000000 0.000000
											CHANNELS 3 Xrotation Yrotation Zrotation
											End Site
											{
												OFFSET -0.882500 2.642609 0.325652
											}
										}
									}
								}
							}
							JOINT Left_Sleeve
							{
								OFFSET 6.592125 -0.646545 0.805568
								CHANNELS 3 Xrotation Yrotation Zrotation
								End Site
								{
									OFFSET -0.000179 20.275787 -0.000000
								}
							}
						}
					}
				}
				JOINT RightShoulder
				{
					OFFSET -5.731700 15.108002 -2.763700
					CHANNELS 3 Xrotation Yrotation Zrotation
					JOINT RightArm
					{
						OFFSET -9.825497 2.506317 -1.597400
						CHANNELS 3 Xrotation Yrotation Zrotation
						JOINT RightForeArm
						{
							OFFSET -21.966242 0.000000 0.000000
							CHANNELS 3 Xrotation Yrotation Zrotation
							JOINT RightHand
							{
								OFFSET -33.879032 0.000000 0.000000
								CHANNELS 3 Xrotation Yrotation Zrotation
								JOINT RightHandThumb1
								{
									OFFSET -6.715286 -2.359680 3.363841
									CHANNELS 3 Xrotation Yrotation Zrotation
									JOINT RightHandThumb2
									{
										OFFSET -2.507072 -1.447464 1.447461
										CHANNELS 3 Xrotation Yrotation Zrotation
										JOINT RightHandThumb3
										{
											OFFSET -2.898338 -1.673355 1.673357
											CHANNELS 3 Xrotation Yrotation Zrotation
											End Site
											{
												OFFSET 0.295959 3.727692 -0.131651
											}
										}
									}
								}
								JOINT RightHandIndex1
								{
									OFFSET -14.190811 -0.254547 3.840278
									CHANNELS 3 Xrotation Yrotation Zrotation
									JOINT RightHandIndex2
									{
										OFFSET -3.551727 0.000000 -0.000000
										CHANNELS 3 Xrotation Yrotation Zrotation
										JOINT RightHandIndex3
										{
											OFFSET -2.894196 0.000000 0.000000
											CHANNELS 3 Xrotation Yrotation Zrotation
											End Site
											{
												OFFSET 1.000603 2.690872 0.366626
											}
										}
									}
								}
								JOINT RightHandMiddle1
								{
									OFFSET -13.776489 0.000000 0.000000
									CHANNELS 3 Xrotation Yrotation Zrotation
									JOINT RightHandMiddle2
									{
										OFFSET -3.438232 0.000000 0.000000
										CHANNELS 3 Xrotation Yrotation Zrotation
										JOINT RightHandMiddle3
										{
											OFFSET -3.691551 0.000000 0.000000
											CHANNELS 3 Xrotation Yrotation Zrotation
											End Site
											{
												OFFSET 1.082298 3.499527 0.457670
											}
										}
									}
								}
								JOINT RightHandRing1
								{
									OFFSET -13.966164 -0.268127 -3.067488
									CHANNELS 3 Xrotation Yrotation Zrotation
									JOINT RightHandRing2
									{
										OFFSET -3.162567 0.000000 0.000000
										CHANNELS 3 Xrotation Yrotation Zrotation
										JOINT RightHandRing3
										{
											OFFSET -3.324348 0.000000 0.000000
											CHANNELS 3 Xrotation Yrotation Zrotation
											End Site
											{
												OFFSET 0.861900 3.184998 0.405154
											}
										}
									}
								}
								JOINT RightHandPinky1
								{
									OFFSET -13.131393 -0.168503 -5.746925
									CHANNELS 3 Xrotation Yrotation Zrotation
									JOINT RightHandPinky2
									{
										OFFSET -2.849182 0.000000 0.000000
										CHANNELS 3 Xrotation Yrotation Zrotation
										JOINT RightHandPinky3
										{
											OFFSET -2.805038 0.000000 0.000000
											CHANNELS 3 Xrotation Yrotation Zrotation
											End Site
											{
												OFFSET 0.882500 2.642609 0.325652
											}
										}
									}
								}
							}
							JOINT Right_Sleeve
							{
								OFFSET -6.592125 -0.646545 0.805568
								CHANNELS 3 Xrotation Yrotation Zrotation
								End Site
								{
									OFFSET 0.000179 20.275787 -0.000000
								}
							}
						}
					}
				}
				JOINT Bind_Right_JacketString
				{
					OFFSET -3.534800 11.969597 7.200700
					CHANNELS 3 Xrotation Yrotation Zrotation
					JOINT Bind_Right_JacketString1
					{
						OFFSET -0.319900 -6.102600 2.794100
						CHANNELS 3 Xrotation Yrotation Zrotation
						End Site
						{
							OFFSET 0.000000 6.719452 0.000000
						}
					}
				}
				JOINT Bind_Left_JacketString
				{
					OFFSET 2.904800 11.969597 7.200700
					CHANNELS 3 Xrotation Yrotation Zrotation
					JOINT Bind_Left_JacketString1
					{
						OFFSET 0.364800 -5.904503 3.186800
						CHANNELS 3 Xrotation Yrotation Zrotation
						End Site
						{
							OFFSET 0.000000 6.719513 0.000000
						}
					}
				}
				JOINT HairE
				{
					OFFSET 5.915200 17.612701 -11.592200
					CHANNELS 3 Xrotation Yrotation Zrotation
					JOINT HairE1
					{
						OFFSET 0.289200 -7.171898 -1.284500
						CHANNELS 3 Xrotation Yrotation Zrotation
						End Site
						{
							OFFSET 0.000000 7.291756 0.000000
						}
					}
				}
				JOINT HairF
				{
					OFFSET -0.864800 17.612701 -11.592200
					CHANNELS 3 Xrotation Yrotation Zrotation
					JOINT HairF1
					{
						OFFSET 0.000000 -14.087097 -2.127501
						CHANNELS 3 Xrotation Yrotation Zrotation
						End Site
						{
							OFFSET 0.000000 14.246841 0.000000
						}
					}
				}
				JOINT HairG
				{
					OFFSET -8.087700 17.612701 -11.592200
					CHANNELS 3 Xrotation Yrotation Zrotation
					JOINT HairG1
					{
						OFFSET -0.293600 -6.081398 -0.910100
						CHANNELS 3 Xrotation Yrotation Zrotation
						End Site
						{
							OFFSET 0.000000 6.156120 0.000000
						}
					}
				}
			}
		}
	}
	JOINT Pouch
	{
		OFFSET 0.000000 4.394501 10.847300
		CHANNELS 3 Xrotation Yrotation Zrotation
		End Site
		{
			OFFSET 0.000000 21.880577 0.000000
		}
	}
	JOINT Bag
	{
		OFFSET -13.229000 4.813004 -0.593300
		CHANNELS 3 Xrotation Yrotation Zrotation
		End Site
		{
			OFFSET 0.000000 21.880577 0.000000
		}
	}
	JOINT OccupyGuyFacialAnim_Joint
	{
		OFFSET 1.000000 -70.206398 -1.655000
		CHANNELS 3 Xrotation Yrotation Zrotation
		End Site
		{
			OFFSET 0.000000 21.880577 0.000000
		}
	}
}
MOTION
Frames: 4
Frame Time: 0.016667
-0.050999 78.355652 -1.586609 -89.648309 0.342458 0.934650 0.000000 0.000000 -0.000000 -3.053980 18.085492 17.610589 4.461734 7.056849 0.293811 27.038520 30.020290 -30.772970 -0.000001 -0.000000 0.000000 -0.000000 0.000001 0.000001 -1.448940 -17.908787 -11.188943 1.723222 -7.090626 -7.526750 37.175634 -29.996968 30.572453 -0.000001 0.000001 -0.000000 -0.000000 -0.000001 0.000000 1.062424 -1.166848 0.740562 -0.317547 -2.434542 0.230484 -0.303419 -2.418347 0.331942 -10.007538 0.108424 -1.808069 8.693205 -2.170253 1.510697 -0.000000 -0.000001 0.000000 -0.000000 -0.000001 0.000000 -0.000000 -0.000001 -0.000000 -0.000000 -0.000001 0.000000 0.000000 -0.000001 -0.000000 -0.000000 -0.000001 0.000000 0.000000 -0.000001 -0.000000 -0.000000 -0.000001 0.000000 -0.000000 -0.000001 0.000000 0.422259 -0.102940 -3.997469 35.266548 -28.376665 -54.536947 -0.000004 -80.459615 0.000039 -13.956466 -3.099393 -10.083735 6.590534 -4.958661 16.122643 7.178852 21.567318 2.147316 -0.000000 -0.000001 -0.000002 0.659511 4.932346 -26.024470 0.169791 1.401609 -13.813545 0.000003 0.000000 -0.000000 1.376920 6.461951 -24.994186 0.169880 1.401974 -13.817110 0.000001 0.000001 -0.000003 2.098724 8.644281 -21.209684 0.169788 1.401613 -13.813542 0.000001 -0.000002 -0.000000 2.123425 10.735860 -14.817569 0.167501 1.392245 -13.719337 -0.000004 -0.000000 0.000003 0.000002 -0.000003 0.000002 0.672258 1.791888 13.905685 39.524409 30.882069 33.636363 0.000449 101.353321 -0.000466 -34.912010 -9.308806 11.148385 -13.115374 7.814924 -0.093420 7.918267 -27.751673 -3.100783 0.000001 -0.000001 0.000001 2.082853 12.897789 37.347461 0.497036 -2.095297 26.687142 -0.000000 0.000001 0.000000 -4.321326 1.650205 38.533503 0.529975 -2.159509 27.573971 0.000001 -0.000001 0.000003 -1.394399 -1.262374 31.742006 0.254170 -1.518991 18.997020 0.000002 -0.000001 -0.000001 0.189705 -3.422249 14.147220 0.162223 -1.219717 15.150960 -0.000001 0.000001 -0.000001 -0.000001 -0.000002 -0.000002 -0.000000 0.000000 0.000000 -0.000000 0.000000 -0.000000 -0.000000 0.000000 0.000000 -0.000000 0.000000 0.000000 -0.000000 0.000000 0.000000 -0.000000 0.000000 0.000000 -0.000000 0.000000 0.000000 -0.000000 0.000000 0.000000 -0.000000 0.000000 0.000000 -0.000000 0.000000 0.000000 0.000000 0.000000 -0.000000 0.000000 0.000000 -0.000000 0.000000 0.000000 -0.000000 
-0.050463 78.356224 -1.585938 -89.647654 0.342293 0.933401 -0.000000 -0.000000 0.000000 -3.042929 18.064097 17.628307 4.542446 7.075619 0.275028 27.041327 30.018811 -30.738621 -0.000001 0.000002 -0.000000 -0.000000 -0.000002 -0.000001 -1.464943 -17.908288 -11.186101 1.744755 -7.093640 -7.541856 37.143136 -30.002576 30.573785 0.000000 -0.000001 0.000000 -0.000000 0.000000 -0.000000 1.062419 -1.300123 0.742150 -0.267800 -2.803663 0.269861 -0.275045 -2.540292 0.378853 -10.308412 0.108422 -1.848247 8.590539 -2.164038 1.438075 -0.000000 0.000000 -0.000000 -0.000000 0.000000 -0.000000 -0.000000 0.000000 -0.000000 -0.000000 0.000000 -0.000000 -0.000000 0.000000 0.000000 -0.000000 0.000000 -0.000000 -0.000000 0.000000 0.000000 -0.000000 0.000000 -0.000000 -0.000000 0.000000 -0.000000 0.286874 1.338427 -4.208840 35.597416 -28.973939 -53.870672 -0.000051 -80.449841 -0.000028 -14.006699 -2.990147 -10.115713 6.590531 -4.958658 16.122639 7.178852 21.567320 2.147319 -0.000003 0.000001 -0.000001 0.659512 4.932347 -26.024476 0.169790 1.401608 -13.813547 0.000002 0.000000 -0.000002 1.376918 6.461951 -24.994179 0.169878 1.401976 -13.817108 -0.000000 0.000002 -0.000001 2.098722 8.644280 -21.209682 0.169784 1.401613 -13.813542 -0.000002 -0.000003 -0.000001 2.123423 10.735863 -14.817573 0.167496 1.392243 -13.719343 0.000000 -0.000000 0.000003 0.000000 0.000003 -0.000000 0.632468 1.910001 13.900114 39.216832 31.338472 32.961632 0.000142 101.514021 -0.000164 -32.241543 -5.778568 11.438763 -12.649661 7.487833 0.310914 7.918268 -27.751672 -3.100777 -0.000001 -0.000006 0.000004 1.826904 12.388902 38.175676 0.531852 -2.163114 27.624075 -0.000002 0.000001 0.000001 -4.275613 1.292265 39.774620 0.580793 -2.254083 28.893736 0.000002 -0.000000 0.000001 -1.400939 -1.500326 33.624325 0.307063 -1.664658 20.900886 -0.000002 0.000001 -0.000001 0.245551 -3.624126 16.721712 0.221501 -1.420586 17.723400 -0.000002 0.000001 0.000001 0.000002 -0.000002 -0.000001 0.000000 -0.000000 0.000000 0.000000 -0.000000 -0.000000 0.000000 -0.000000 -0.000000 0.000000 -0.000000 -0.000000 0.000000 -0.000000 0.000000 0.000000 -0.000000 0.000000 0.000000 -0.000000 -0.000000 0.000000 -0.000000 -0.000000 0.000000 -0.000000 0.000000 0.000000 -0.000000 0.000000 -0.000000 -0.000000 0.000000 -0.000000 -0.000000 0.000000 -0.000000 -0.000000 0.000000 
-0.051426 78.360672 -1.583893 -89.646848 0.341332 0.934044 -0.000000 -0.000000 -0.000000 -3.036356 18.060909 17.631766 4.568433 7.083734 0.250266 27.087782 30.017315 -30.737699 -0.000001 0.000003 -0.000000 -0.000000 0.000001 -0.000000 -1.485666 -17.903999 -11.172356 1.819985 -7.077966 -7.580184 37.026039 -30.044506 30.565219 -0.000001 0.000003 -0.000001 -0.000000 -0.000001 -0.000001 1.068108 -1.484549 0.743451 -0.121995 -3.167863 0.318245 -0.192742 -2.885992 0.467763 -10.438607 0.101447 -1.869203 8.494244 -2.149575 1.244425 -0.000000 0.000000 -0.000000 -0.000000 0.000000 -0.000000 -0.000000 0.000000 -0.000000 -0.000000 0.000000 -0.000000 -0.000000 0.000001 -0.000000 -0.000000 0.000000 -0.000000 -0.000000 0.000001 -0.000000 -0.000000 0.000000 -0.000000 -0.000000 0.000000 -0.000000 0.143290 2.780178 -4.408304 35.798080 -29.342127 -53.527984 0.000245 -80.441153 0.000259 -13.903223 -3.035557 -10.126511 6.590537 -4.958663 16.122641 7.178849 21.567320 2.147316 0.000000 -0.000002 -0.000003 0.659512 4.932340 -26.024470 0.169787 1.401612 -13.813544 0.000004 -0.000001 -0.000000 1.376920 6.461951 -24.994186 0.169880 1.401972 -13.817111 -0.000000 0.000002 -0.000001 2.098724 8.644275 -21.209686 0.169784 1.401610 -13.813538 0.000001 -0.000003 -0.000003 2.123425 10.735860 -14.817580 0.167495 1.392243 -13.719342 -0.000003 0.000001 0.000005 -0.000002 0.000001 -0.000001 0.595524 2.019710 13.895006 37.989434 32.092286 32.256320 0.000131 101.960094 -0.000151 -30.034264 -3.162343 11.679203 -12.147803 7.137454 0.751202 7.918266 -27.751673 -3.100771 0.000000 0.000002 0.000000 1.567005 11.835563 39.062204 0.570620 -2.235576 28.634258 0.000000 0.000000 0.000000 -4.213787 0.910807 41.113470 0.638009 -2.354711 30.316771 0.000000 0.000001 -0.000001 -1.397921 -1.756050 35.653984 0.369472 -1.819643 22.953757 0.000001 -0.000001 -0.000003 0.315877 -3.838720 19.498127 0.295439 -1.633924 20.497212 -0.000000 0.000000 -0.000001 0.000002 -0.000001 0.000001 -0.000000 0.000000 -0.000000 -0.000000 0.000000 0.000000 -0.000000 0.000000 -0.000000 -0.000000 0.000000 -0.000000 -0.000000 0.000000 -0.000000 -0.000000 0.000000 0.000000 -0.000000 0.000000 -0.000000 -0.000000 0.000000 -0.000000 -0.000000 0.000000 -0.000000 -0.000000 0.000000 0.000000 -0.000000 -0.000000 -0.000000 -0.000000 -0.000000 -0.000000 -0.000000 -0.000000 -0.000000 
-0.057448 78.363113 -1.580795 -89.641930 0.323335 0.937375 -0.000000 0.000000 -0.000000 -3.029337 18.056133 17.642163 4.600546 7.120246 0.221504 27.126646 30.015560 -30.737190 0.000000 0.000001 0.000000 -0.000000 -0.000002 -0.000001 -1.533113 -17.893518 -11.151554 1.950269 -7.050968 -7.637249 36.827096 -30.106873 30.552358 0.000000 -0.000002 -0.000000 0.000000 -0.000003 -0.000001 1.015389 -1.604602 0.742892 -0.004332 -3.399447 0.363598 -0.116509 -3.107313 0.517954 -10.409551 0.091389 -1.902494 8.391100 -2.126789 0.943353 -0.000000 0.000001 -0.000000 -0.000000 0.000001 -0.000000 -0.000000 0.000001 -0.000000 -0.000000 0.000001 -0.000000 -0.000000 0.000000 -0.000000 -0.000000 0.000001 -0.000000 -0.000000 0.000000 -0.000000 -0.000000 0.000001 -0.000000 -0.000000 0.000001 -0.000000 -0.087595 3.411967 -4.598580 36.070239 -29.254721 -53.441603 0.000250 -80.534091 0.000277 -13.803848 -3.053173 -10.111802 6.590535 -4.958661 16.122636 7.178854 21.567320 2.147317 -0.000002 0.000001 -0.000001 0.659512 4.932352 -26.024474 0.169788 1.401615 -13.813545 0.000002 -0.000000 -0.000000 1.376918 6.461955 -24.994184 0.169881 1.401973 -13.817110 -0.000001 0.000001 -0.000001 2.098725 8.644282 -21.209682 0.169786 1.401615 -13.813540 0.000001 -0.000001 -0.000003 2.123426 10.735866 -14.817578 0.167501 1.392242 -13.719340 -0.000004 0.000002 0.000003 -0.000003 0.000002 -0.000001 0.552926 2.146236 13.889202 36.351291 32.916222 31.673052 0.000243 102.444614 -0.000270 -28.112837 -0.954736 11.594350 -11.615832 6.768542 1.223008 7.918271 -27.751672 -3.100780 0.000001 -0.000001 0.000004 1.309551 11.243904 39.995310 0.613123 -2.311656 29.705531 0.000001 -0.000001 0.000000 -4.134200 0.511797 42.534259 0.701404 -2.459821 31.825915 -0.000001 -0.000000 -0.000003 -1.383346 -2.025822 37.806675 0.441688 -1.981423 25.130914 -0.000001 -0.000000 -0.000002 0.401761 -4.062270 22.443199 0.385042 -1.855943 23.439090 0.000001 0.000000 -0.000001 0.000001 0.000002 0.000002 0.000000 -0.000001 0.000000 0.000000 -0.000001 0.000000 0.000000 -0.000001 0.000000 0.000000 -0.000001 0.000000 0.000000 -0.000001 0.000000 0.000000 -0.000001 0.000000 0.000000 -0.000001 0.000000 0.000000 -0.000001 0.000000 0.000000 -0.000001 0.000000 0.000000 -0.000001 0.000000 -0.000000 0.000000 -0.000000 -0.000000 0.000000 -0.000000 -0.000000 0.000000 -0.000000 
